<svg width="70" height="71" xmlns="http://www.w3.org/2000/svg" xmlns:xlink="http://www.w3.org/1999/xlink" xmlns:svgjs="http://svgjs.com/svgjs" viewBox="374 369 70 71"><svg width="35" height="71" xmlns="http://www.w3.org/2000/svg" xmlns:xlink="http://www.w3.org/1999/xlink" xmlns:svgjs="http://svgjs.com/svgjs" viewBox="0.245 0 34.511 71" fill="#e84c3d" x="409" y="369"><svg xmlns="http://www.w3.org/2000/svg" xmlns:xlink="http://www.w3.org/1999/xlink" width="35" height="71" viewBox="2 1.025 34 69.95"><path paint-order="stroke fill markers" fill-rule="evenodd" d="M2 70.975C20.866 70.444 36 54.995 36 36S20.866 1.556 2 1.025v69.95zm8.462-42.14c0-.156.069-.294.173-.398l.865-.865a.596.596 0 0 1 .398-.173c.138 0 .294.069.398.173l8.063 8.063c.104.104.173.26.173.398 0 .139-.069.294-.173.398l-8.063 8.064a.596.596 0 0 1-.398.173.596.596 0 0 1-.398-.173l-.865-.866a.596.596 0 0 1-.173-.398c0-.138.069-.294.173-.398l6.8-6.8-6.8-6.8a.596.596 0 0 1-.173-.398z"/></svg></svg><svg width="35" height="71" xmlns="http://www.w3.org/2000/svg" xmlns:xlink="http://www.w3.org/1999/xlink" xmlns:svgjs="http://svgjs.com/svgjs" viewBox="0.245 0 34.511 71" fill="#e84c3d" x="374" y="369"><svg xmlns="http://www.w3.org/2000/svg" width="35" height="71" viewBox="1 1.025 34 69.95"><path paint-order="stroke fill markers" fill-rule="evenodd" d="M35 70.975C16.134 70.444 1 54.995 1 36S16.134 1.556 35 1.025v69.95zm-8.15-42.14a.564.564 0 0 0-.174-.398l-.865-.865a.596.596 0 0 0-.398-.173.596.596 0 0 0-.398.173l-8.063 8.063a.596.596 0 0 0-.173.398c0 .139.069.294.173.398l8.063 8.064c.104.103.26.173.398.173s.294-.07.398-.173l.865-.866a.596.596 0 0 0 .173-.398.596.596 0 0 0-.173-.398l-6.8-6.8 6.8-6.8a.596.596 0 0 0 .173-.398z"/></svg></svg></svg>